<svg id="visual" viewBox="0 0 960 540" width="960" height="540" xmlns="http://www.w3.org/2000/svg" xmlns:xlink="http://www.w3.org/1999/xlink" version="1.1"><rect width="960" height="540" fill="#000000"></rect><g><g transform="translate(811 256)"><path d="M0 -44.8L38.8 -22.4L38.8 22.4L0 44.8L-38.8 22.4L-38.8 -22.4Z" fill="#0e0d0b"></path></g><g transform="translate(54 307)"><path d="M0 -33L28.6 -16.5L28.6 16.5L0 33L-28.6 16.5L-28.6 -16.5Z" fill="#0e0d0b"></path></g><g transform="translate(890 486)"><path d="M0 -21L18.2 -10.5L18.2 10.5L0 21L-18.2 10.5L-18.2 -10.5Z" fill="#0e0d0b"></path></g><g transform="translate(644 297)"><path d="M0 -40L34.6 -20L34.6 20L0 40L-34.6 20L-34.6 -20Z" fill="#0e0d0b"></path></g><g transform="translate(235 476)"><path d="M0 -16L13.9 -8L13.9 8L0 16L-13.9 8L-13.9 -8Z" fill="#0e0d0b"></path></g><g transform="translate(553 305)"><path d="M0 -11L9.5 -5.5L9.5 5.5L0 11L-9.5 5.5L-9.5 -5.5Z" fill="#0e0d0b"></path></g><g transform="translate(746 451)"><path d="M0 -43L37.2 -21.5L37.2 21.5L0 43L-37.2 21.5L-37.2 -21.5Z" fill="#0e0d0b"></path></g><g transform="translate(73 471)"><path d="M0 -41L35.5 -20.5L35.5 20.5L0 41L-35.5 20.5L-35.5 -20.5Z" fill="#0e0d0b"></path></g><g transform="translate(917 68)"><path d="M0 -24L20.8 -12L20.8 12L0 24L-20.8 12L-20.8 -12Z" fill="#0e0d0b"></path></g><g transform="translate(340 426)"><path d="M0 -37L32 -18.5L32 18.5L0 37L-32 18.5L-32 -18.5Z" fill="#0e0d0b"></path></g><g transform="translate(450 139)"><path d="M0 -25L21.7 -12.5L21.7 12.5L0 25L-21.7 12.5L-21.7 -12.5Z" fill="#0e0d0b"></path></g><g transform="translate(204 146)"><path d="M0 -30L26 -15L26 15L0 30L-26 15L-26 -15Z" fill="#0e0d0b"></path></g><g transform="translate(644 89)"><path d="M0 -35L30.3 -17.5L30.3 17.5L0 35L-30.3 17.5L-30.3 -17.5Z" fill="#0e0d0b"></path></g><g transform="translate(580 490)"><path d="M0 -33L28.6 -16.5L28.6 16.5L0 33L-28.6 16.5L-28.6 -16.5Z" fill="#0e0d0b"></path></g><g transform="translate(296 172)"><path d="M0 -37L32 -18.5L32 18.5L0 37L-32 18.5L-32 -18.5Z" fill="#0e0d0b"></path></g><g transform="translate(274 8)"><path d="M0 -20L17.3 -10L17.3 10L0 20L-17.3 10L-17.3 -10Z" fill="#0e0d0b"></path></g></g></svg>